<svg width="33" height="32" viewBox="0 0 33 32" fill="none" xmlns="http://www.w3.org/2000/svg">
<path d="M16.5 0C7.663 0 0.5 7.163 0.5 16C0.5 24.837 7.664 32 16.5 32C25.337 32 32.5 24.837 32.5 16C32.5 7.163 25.337 0 16.5 0ZM18.567 18.96C18.9 19.249 19.159 20.268 19.159 20.736V24.88H16.794H14.426C14.426 24.88 14.433 23.475 14.426 22.512C11.186 23.209 10.282 20.736 10.282 20.736C9.69 19.552 9.098 18.96 9.098 18.96C7.914 18.257 9.098 18.368 9.098 18.368C10.282 18.368 10.874 19.552 10.874 19.552C11.913 21.316 13.762 21.032 14.426 20.736C14.426 20.144 14.685 19.249 15.018 18.96C12.432 18.669 10.28 17.184 10.28 14.224C10.28 11.264 10.874 10.672 11.466 10.08C11.346 9.788 10.851 8.71 11.484 7.12C11.484 7.12 12.647 7.12 13.831 8.896C14.418 8.309 16.199 8.304 16.792 8.304C17.383 8.304 19.165 8.309 19.751 8.896C20.935 7.12 22.101 7.12 22.101 7.12C22.734 8.71 22.239 9.788 22.119 10.08C22.711 10.672 23.303 11.264 23.303 14.224C23.304 17.184 21.154 18.669 18.567 18.96Z" fill="#FBCDB6"/>
</svg>
