<svg width="33" height="32" viewBox="0 0 33 32" fill="none" xmlns="http://www.w3.org/2000/svg">
<g clip-path="url(#clip0_205_3842)">
<path d="M16.5001 3.0061C9.33608 3.0061 3.50708 8.8351 3.50708 16.0001C3.50708 23.1641 9.33608 28.9931 16.5001 28.9931C23.6641 28.9931 29.4941 23.1641 29.4941 16.0001C29.4941 8.8351 23.6641 3.0061 16.5001 3.0061ZM12.5431 21.9271H9.43708V12.5791H12.5441L12.5431 21.9271ZM10.9901 11.3031H10.9701C9.92708 11.3031 9.25308 10.5851 9.25308 9.6871C9.25308 8.7701 9.94808 8.0721 11.0111 8.0721C12.0741 8.0721 12.7281 8.7701 12.7491 9.6871C12.7481 10.5851 12.0731 11.3031 10.9901 11.3031ZM23.7471 21.9271H20.6401V16.9261C20.6401 15.6701 20.1911 14.8131 19.0661 14.8131C18.2081 14.8131 17.6971 15.3911 17.4731 15.9491C17.3911 16.1491 17.3711 16.4281 17.3711 16.7061V21.9271H14.2641C14.2641 21.9271 14.3051 13.4561 14.2641 12.5791H17.3711V13.9031C17.7831 13.2661 18.5221 12.3591 20.1711 12.3591C22.2151 12.3591 23.7481 13.6951 23.7481 16.5671L23.7471 21.9271Z" fill="#FBCDB6"/>
<path d="M16.5 0C7.664 0 0.5 7.163 0.5 16C0.5 24.836 7.664 32 16.5 32C25.336 32 32.5 24.836 32.5 16C32.5 7.163 25.336 0 16.5 0ZM16.5 29.493C9.047 29.493 3.007 23.452 3.007 16C3.007 8.547 9.047 2.506 16.5 2.506C23.953 2.506 29.994 8.547 29.994 16C29.994 23.452 23.953 29.493 16.5 29.493Z" fill="#FBCDB6"/>
</g>
<defs>
<clipPath id="clip0_205_3842">
<rect width="32" height="32" fill="white" transform="translate(0.5)"/>
</clipPath>
</defs>
</svg>
